<svg width="18" height="20" viewBox="0 0 18 20" fill="none" xmlns="http://www.w3.org/2000/svg">
<path d="M1.10843 11.9951C0.93122 13.1226 1.72349 13.9052 2.69354 14.2952C6.4125 15.7905 11.5878 15.7905 15.3068 14.2952C16.2768 13.9052 17.0691 13.1226 16.8919 11.9951C16.783 11.3021 16.2445 10.7251 15.8455 10.1617C15.3229 9.41462 15.271 8.59978 15.2709 7.73286C15.2709 4.38261 12.4634 1.66669 9.00016 1.66669C5.53694 1.66669 2.72943 4.38261 2.72943 7.73286C2.72936 8.59978 2.67743 9.41462 2.15484 10.1617C1.75586 10.7251 1.21734 11.3021 1.10843 11.9951Z" stroke="white" stroke-width="1.5" stroke-linecap="round" stroke-linejoin="round"/>
<path d="M6.5 17.5C7.16345 18.0182 8.03956 18.3333 9 18.3333C9.96044 18.3333 10.8366 18.0182 11.5 17.5" stroke="white" stroke-width="1.5" stroke-linecap="round" stroke-linejoin="round"/>
</svg>
