<svg width="24" height="25" viewBox="0 0 24 25" fill="none" xmlns="http://www.w3.org/2000/svg">
<path d="M9.01286 14.6199V14.6601C9.00178 15.5111 8.28623 16.151 6.86619 16.5799C8.57727 17.8243 10.2884 18.8199 11.9995 18.8199C13.7106 18.8199 15.4218 17.8243 17.1329 16.5799C15.7225 16.1505 15.0069 15.5097 14.9862 14.6572C14.9862 14.5053 14.9873 14.2895 14.9883 13.8843C14.9883 13.82 14.9885 13.7541 14.9888 13.6866C15.0908 13.701 15.0821 13.6919 14.9888 13.6659C14.9916 12.6001 14.9962 11.167 15.0025 9.71054C16.3402 7.97669 15.8488 5.94398 15.4296 5.99466C14.9158 6.05729 10.4635 1.83228 9.60954 1.61565C8.75554 1.39902 6.58619 2.09837 6.21286 4.0467C5.83953 5.99504 5.68347 10.906 7.09953 12.8667C7.50248 13.4246 8.13714 13.6429 9.00353 13.5214C9.00474 13.9292 9.00717 14.1581 9.01286 14.6199Z" fill="url(#paint0_linear_1704_110)"/>
<path d="M9.0127 13.52C11.066 13.2867 12.3727 12.4 12.3727 12.4C12.3727 12.4 10.9596 14.2776 9.0127 14.64V13.52Z" fill="#FFBE94"/>
<path d="M15.6863 9.74001C16.3294 8.19348 18.9063 5.04376 16.685 3.08376C15.9383 -0.556243 11.813 -0.153323 9.05965 0.686677C7.20913 1.25125 5.81164 2.36668 5.51298 1.52668C3.64631 3.08376 4.58114 4.60668 5.81165 5.04376C6.92847 5.44042 8.81698 5.83709 12.0282 5.46376C12.6018 5.39702 12.4817 7.15384 12.7882 7.34377C13.2481 7.62872 13.605 5.83709 14.8657 6.37506C16.1265 6.91304 15.3783 9.40746 14.025 9.40746C13.5583 9.40746 13.325 10.6905 14.585 11.2972C15.4996 11.7467 15.2685 10.7449 15.6863 9.74001Z" fill="url(#paint1_linear_1704_110)"/>
<path d="M21.7998 19.4287C22.6883 21.2354 23.1998 25.4021 23.1998 25.4021H0.799805C0.799805 25.4021 1.31146 21.2349 2.1998 19.4287C3.08815 17.6225 8.2758 15.9473 8.2758 15.9473C9.27569 18 14.7632 18 15.7211 15.9467C15.7211 15.9467 20.9113 17.6221 21.7998 19.4287Z" fill="url(#paint2_linear_1704_110)"/>
<mask id="mask0_1704_110" style="mask-type:alpha" maskUnits="userSpaceOnUse" x="0" y="15" width="24" height="11">
<path d="M21.7998 19.4287C22.6883 21.2354 23.1998 25.4021 23.1998 25.4021H0.799805C0.799805 25.4021 1.31146 21.2349 2.1998 19.4287C3.08815 17.6225 8.2758 15.9473 8.2758 15.9473C9.27569 18 14.7632 18 15.7211 15.9467C15.7211 15.9467 20.9113 17.6221 21.7998 19.4287Z" fill="url(#paint3_linear_1704_110)"/>
</mask>
<g mask="url(#mask0_1704_110)">
<path d="M-0.133301 23.5067V22.76H24.1334V23.5067H-0.133301ZM-0.133301 21.64V20.8933H24.1334V21.64H-0.133301ZM-0.133301 19.7733V19.0267H24.1334V19.7733H-0.133301Z" fill="url(#paint4_linear_1704_110)"/>
</g>
<defs>
<linearGradient id="paint0_linear_1704_110" x1="11.5442" y1="1.57776" x2="11.5442" y2="18.8199" gradientUnits="userSpaceOnUse">
<stop stop-color="#FFD4B3"/>
<stop offset="1" stop-color="#FFDCC2"/>
</linearGradient>
<linearGradient id="paint1_linear_1704_110" x1="11.0141" y1="11.4077" x2="11.0141" y2="0.116211" gradientUnits="userSpaceOnUse">
<stop stop-color="#E6864E"/>
<stop offset="1" stop-color="#E67240"/>
</linearGradient>
<linearGradient id="paint2_linear_1704_110" x1="11.9998" y1="25.4021" x2="11.9998" y2="15.9467" gradientUnits="userSpaceOnUse">
<stop stop-color="#E6864E"/>
<stop offset="1" stop-color="#E67240"/>
</linearGradient>
<linearGradient id="paint3_linear_1704_110" x1="11.9998" y1="25.4021" x2="11.9998" y2="15.9467" gradientUnits="userSpaceOnUse">
<stop stop-color="#E6864E"/>
<stop offset="1" stop-color="#E67240"/>
</linearGradient>
<linearGradient id="paint4_linear_1704_110" x1="12" y1="19.0267" x2="12" y2="23.5067" gradientUnits="userSpaceOnUse">
<stop stop-color="#F7B186"/>
<stop offset="1" stop-color="#FFC299"/>
</linearGradient>
</defs>
</svg>
