<svg width="20" height="14" viewBox="0 0 20 14" fill="none" xmlns="http://www.w3.org/2000/svg">
<path d="M17.9533 6.20399C18.2067 6.55926 18.3334 6.73689 18.3334 6.99984C18.3334 7.26278 18.2067 7.44042 17.9533 7.79568C16.8149 9.39197 13.9077 12.8332 10 12.8332C6.09234 12.8332 3.1851 9.39197 2.04672 7.79568C1.79337 7.44042 1.66669 7.26278 1.66669 6.99984C1.66669 6.73689 1.79336 6.55926 2.04672 6.20399C3.1851 4.60771 6.09234 1.1665 10 1.1665C13.9077 1.1665 16.8149 4.6077 17.9533 6.20399Z" stroke="#656981" stroke-width="1.5"/>
<path d="M12.5 7C12.5 5.61929 11.3807 4.5 10 4.5C8.61929 4.5 7.5 5.61929 7.5 7C7.5 8.38071 8.61929 9.5 10 9.5C11.3807 9.5 12.5 8.38071 12.5 7Z" stroke="#656981" stroke-width="1.5"/>
</svg>
